<?xml version='1.0' encoding='utf-8'?>
<svg xmlns="http://www.w3.org/2000/svg" width="747px" height="747px" style="shape-rendering:geometricPrecision; text-rendering:geometricPrecision; image-rendering:optimizeQuality; fill-rule:evenodd; clip-rule:evenodd" viewBox="0 0 747 747"> <defs> <style type="text/css">  .fil0 {fill:url(#id0)}  </style> <radialGradient id="id0" gradientUnits="userSpaceOnUse" cx="373.5" cy="373.5" r="1758.03" fx="373.5" fy="373.5"> <stop offset="0" style="stop-color:#FFCC00"/> <stop offset="0.278431" style="stop-color:#F75D18"/> <stop offset="0.529412" style="stop-color:#FF6600"/> <stop offset="1" style="stop-color:#FFCC00"/> </radialGradient> </defs> <g id="Layer_x0020_1"> <metadata id="CorelCorpID_0Corel-Layer"/> <path class="fil0" d="M96.9673 121.633c70.7504,5.67283 143.174,3.58583 164.339,82.6441 7.30276,27.3177 10.8106,57.8528 14.6752,85.9488 -17.1768,-10.187 -36.561,-23.276 -49.428,-38.7236 -7.01693,-8.4248 -11.576,-16.9323 -14.3209,-27.548 -2.56535,-9.93071 -2.99882,-19.376 -10.063,-27.548 -8.39882,-9.70984 -24.7146,-15.7795 -36.5705,-19.6146 44.8051,93.8161 83.5228,126.833 169.241,151.636 -74.9787,-103.465 -71.7071,-222.911 21.2185,-328.561 46.0157,54.039 98.7047,103.774 57.7665,174.643 -14.1531,24.4807 -33.2634,48.5528 -50.3988,71.152 -4.94173,-19.35 -9.39331,-42.3106 -7.5685,-62.3327 0.995669,-10.9181 3.7878,-20.1579 9.35315,-29.6055 5.20866,-8.83583 11.5807,-15.822 12.3638,-26.5949 0.927165,-12.8055 -6.3189,-28.6335 -11.9882,-39.7287 -34.6571,98.0197 -30.626,148.743 12.4476,226.893 20.1425,-126.178 106.917,-208.326 247.332,-217.324 -5.67283,70.7504 -3.58583,143.174 -82.6441,164.339 -27.3177,7.30276 -57.8528,10.8106 -85.9488,14.674 10.187,-17.1756 23.276,-36.5598 38.7236,-49.4268 8.4248,-7.01575 16.9323,-11.576 27.548,-14.3209 9.93071,-2.56535 19.376,-2.99882 27.548,-10.063 9.70984,-8.39882 15.7795,-24.7146 19.6146,-36.5705 -93.8161,44.8051 -126.833,83.5228 -151.636,169.241 103.465,-74.9787 222.911,-71.7071 328.561,21.2185 -54.039,46.0157 -103.774,98.7047 -174.643,57.7665 -24.4807,-14.1531 -48.5528,-33.2634 -71.152,-50.3988 19.35,-4.94173 42.3106,-9.39331 62.3327,-7.5685 10.9181,0.995669 20.1579,3.7878 29.6055,9.35315 8.83583,5.20866 15.822,11.5807 26.5949,12.3626 12.8055,0.928346 28.6335,-6.31772 39.7287,-11.9882 -98.0197,-34.6559 -148.743,-30.6248 -226.893,12.4488 126.178,20.1425 208.326,106.917 217.324,247.332 -70.7504,-5.67283 -143.174,-3.58583 -164.339,-82.6441 -7.30276,-27.3177 -10.8106,-57.8528 -14.674,-85.95 17.1756,10.1882 36.5598,23.2772 49.4268,38.7248 7.01575,8.42362 11.576,16.9323 14.3209,27.548 2.56535,9.93071 2.99882,19.376 10.063,27.5469 8.39882,9.71102 24.7146,15.7807 36.5705,19.6157 -44.8051,-93.8161 -83.5228,-126.833 -169.241,-151.636 74.9787,103.465 71.7071,222.911 -21.2185,328.561 -46.0157,-54.039 -98.7047,-103.774 -57.7665,-174.643 14.1531,-24.4807 33.2634,-48.5528 50.3988,-71.152 4.94173,19.35 9.39331,42.3106 7.5685,62.3315 -0.995669,10.9193 -3.7878,20.1591 -9.35315,29.6067 -5.20866,8.83583 -11.5807,15.822 -12.3626,26.5949 -0.928346,12.8055 6.31772,28.6335 11.9882,39.7287 34.6559,-98.0197 30.6248,-148.743 -12.4488,-226.893 -20.1425,126.178 -106.917,208.326 -247.332,217.324 5.67283,-70.7504 3.58583,-143.174 82.6441,-164.339 27.3177,-7.30276 57.8528,-10.8106 85.95,-14.674 -10.1882,17.1756 -23.2772,36.5598 -38.7248,49.4268 -8.42362,7.01575 -16.9323,11.576 -27.548,14.3209 -9.93071,2.56535 -19.376,2.99882 -27.5469,10.063 -9.71102,8.39882 -15.7807,24.7146 -19.6157,36.5705 93.8161,-44.8051 126.833,-83.5228 151.636,-169.241 -103.465,74.9787 -222.911,71.7071 -328.561,-21.2185 54.039,-46.0157 103.774,-98.7047 174.643,-57.7665 24.4807,14.1531 48.5528,33.2634 71.152,50.3988 -19.35,4.94173 -42.3106,9.39331 -62.3315,7.5685 -10.9193,-0.995669 -20.1591,-3.7878 -29.6067,-9.35315 -8.83583,-5.20866 -15.822,-11.5807 -26.5949,-12.3638 -12.8055,-0.927165 -28.6335,6.3189 -39.7287,11.9882 98.0197,34.6571 148.743,30.626 226.893,-12.4476 -126.178,-20.1425 -208.326,-106.917 -217.324,-247.332z"/> </g> </svg>